<svg xmlns="http://www.w3.org/2000/svg" version="1.1" xmlns:xlink="http://www.w3.org/1999/xlink" xmlns:svgjs="http://svgjs.com/svgjs" width="22" height="22" x="0" y="0" viewBox="0 0 90 90" style="enable-background:new 0 0 512 512" xml:space="preserve" class="hovered-paths"><g transform="matrix(0.72,0,0,0.72,12.61363235473636,12.711616973876978)"><path d="M74.209 13.695c-1.896-.047-3.912.735-5.49 2.314L32.844 51.918 21.375 40.437c-2.797-2.801-7-3.102-9.426-.678l-5.163 5.167c-2.421 2.425-2.118 6.638.678 9.438l21.011 21.027c2.363 2.372 6.552 2.195 8.745 0l45.411-45.46c2.797-2.8 3.104-7.008.678-9.432l-5.162-5.172c-1.063-1.058-2.463-1.596-3.938-1.632z" fill="#c4c4c4" data-original="#000000" class="hovered-path"></path></g></svg>